<!-- Generated by IcoMoon.io -->
<svg version="1.1" xmlns="http://www.w3.org/2000/svg" width="32" height="32" viewBox="0 0 32 32">
<title>antenna</title>
<path fill="#f5f4fa" d="M0.474 8.889h31.052c0.262 0 0.474 0.212 0.474 0.474v13.274c0 0.262-0.212 0.474-0.474 0.474h-31.052c-0.262 0-0.474-0.212-0.474-0.474v-13.274c0-0.262 0.212-0.474 0.474-0.474z"></path>
<path fill="#212121" d="M19.83 17.581l-2.189-2.205 0.243-1.197c0.063 0.024 0.129 0.037 0.197 0.038h0.002c0.309 0.004 0.563-0.244 0.566-0.553s-0.244-0.563-0.553-0.566c-0.309-0.004-0.563 0.244-0.566 0.553-0.001 0.066 0.010 0.132 0.032 0.194l-1.286 0.157-2.098-2.108c-0.026-0.026-0.061-0.041-0.098-0.041s-0.071 0.015-0.097 0.040l-0.392 0.39c-0.054 0.054-0.054 0.142 0 0.196l0.211 0.214c-0.817 1.503-0.552 3.365 0.653 4.579 0.011 0.011 0.024 0.019 0.038 0.025-0.009 0.047-0.013 0.094-0.014 0.142v1.604h-1.659c-0.382 0-0.691 0.31-0.691 0.691v0.277c0 0.076 0.062 0.138 0.138 0.138h6.361c0.076 0 0.138-0.062 0.138-0.138v-0.277c-0-0.382-0.31-0.691-0.691-0.691h-1.659v-0.711c0.26 0.055 0.525 0.082 0.79 0.083 0.637-0.001 1.264-0.16 1.825-0.462l0.212 0.213c0.026 0.026 0.061 0.041 0.098 0.041s0.071-0.015 0.097-0.040l0.392-0.39c0.054-0.054 0.054-0.142 0-0.196zM17.887 13.468c0.108-0.108 0.283-0.107 0.391 0.001s0.107 0.283-0.001 0.391c-0.052 0.052-0.122 0.081-0.195 0.080h-0.001c-0.153-0.001-0.276-0.125-0.275-0.278 0-0.073 0.030-0.143 0.082-0.195h-0zM17.562 14.376l-0.155 0.764-0.305-0.307 0.46-0.457zM17.405 14.143l-0.498 0.495-0.385-0.387 0.883-0.108zM18.075 19.319c0.229 0 0.415 0.186 0.415 0.415v0.138h-6.084v-0.138c0-0.229 0.186-0.415 0.415-0.415h5.254zM16.139 18.765v0.277h-1.383v-0.277h1.383zM14.757 18.489v-1.051c0-0.335 0.31-0.608 0.691-0.608s0.691 0.273 0.691 0.608v1.051h-1.383zM16.416 18.049v-0.611c0-0.488-0.434-0.885-0.968-0.885-0.345-0.005-0.668 0.17-0.851 0.463-1.052-1.108-1.289-2.76-0.591-4.119l4.823 4.85c-0.745 0.379-1.598 0.485-2.413 0.302zM19.343 17.872l-5.459-5.491 0.196-0.195 2.057 2.069c0.001 0 0.002 0.002 0.003 0.002l3.4 3.42-0.196 0.195z"></path>
<path fill="#2196f3" d="M15.449 17.106h-0.001c-0.229-0-0.415 0.185-0.415 0.414s0.185 0.415 0.414 0.415h0.001c0.229 0 0.415-0.185 0.416-0.414s-0.185-0.415-0.414-0.415zM15.546 17.619c-0.026 0.026-0.061 0.040-0.098 0.040-0.076-0-0.138-0.063-0.137-0.139 0-0.037 0.015-0.072 0.041-0.097s0.060-0.040 0.097-0.040c0.076 0 0.138 0.063 0.138 0.139-0 0.037-0.015 0.072-0.041 0.097h0.001z"></path>
</svg>
