<!-- Generated by IcoMoon.io -->
<svg version="1.1" xmlns="http://www.w3.org/2000/svg" width="32" height="32" viewBox="0 0 32 32">
<title>Astronaut</title>
<path fill="#f5f4fa" d="M0.474 8.889h31.052c0.262 0 0.474 0.212 0.474 0.474v13.274c0 0.262-0.212 0.474-0.474 0.474h-31.052c-0.262 0-0.474-0.212-0.474-0.474v-13.274c0-0.262 0.212-0.474 0.474-0.474z"></path>
<path fill="#2196f3" d="M20.141 13.025c-0.016-0.050-0.059-0.086-0.112-0.094l-0.495-0.072-0.222-0.449c-0.046-0.095-0.201-0.095-0.248 0l-0.222 0.449-0.495 0.072c-0.052 0.008-0.095 0.044-0.112 0.094s-0.003 0.105 0.035 0.142l0.359 0.349-0.085 0.493c-0.009 0.052 0.012 0.104 0.055 0.135s0.099 0.035 0.146 0.011l0.443-0.233 0.443 0.233c0.020 0.011 0.042 0.016 0.064 0.016 0.029 0 0.057-0.009 0.081-0.026 0.043-0.031 0.064-0.083 0.055-0.135l-0.085-0.493 0.359-0.349c0.038-0.037 0.051-0.092 0.035-0.142zM19.503 13.369c-0.032 0.032-0.048 0.078-0.040 0.122l0.049 0.289-0.259-0.136c-0.020-0.011-0.042-0.016-0.064-0.016s-0.044 0.005-0.064 0.016l-0.259 0.136 0.049-0.289c0.008-0.045-0.007-0.091-0.040-0.122l-0.21-0.205 0.29-0.042c0.045-0.007 0.084-0.035 0.104-0.076l0.13-0.263 0.13 0.263c0.020 0.041 0.059 0.069 0.104 0.076l0.29 0.042-0.21 0.205z"></path>
<path fill="#2196f3" d="M18.627 17.172h-0.276v0.277h0.276v-0.277z"></path>
<path fill="#2196f3" d="M18.627 17.726h-0.276v0.277h0.276v-0.277z"></path>
<path fill="#2196f3" d="M18.904 17.449h-0.276v0.277h0.276v-0.277z"></path>
<path fill="#2196f3" d="M18.351 17.449h-0.277v0.277h0.277v-0.277z"></path>
<path fill="#2196f3" d="M17.659 18.693h-0.276v0.277h0.276v-0.277z"></path>
<path fill="#2196f3" d="M17.659 19.247h-0.276v0.277h0.276v-0.277z"></path>
<path fill="#2196f3" d="M17.936 18.97h-0.277v0.277h0.277v-0.277z"></path>
<path fill="#2196f3" d="M17.383 18.97h-0.277v0.277h0.277v-0.277z"></path>
<path fill="#2196f3" d="M16 18.14h-0.277v0.277h0.277v-0.277z"></path>
<path fill="#2196f3" d="M16 18.693h-0.277v0.277h0.277v-0.277z"></path>
<path fill="#2196f3" d="M16.276 18.417h-0.277v0.277h0.277v-0.277z"></path>
<path fill="#2196f3" d="M15.723 18.417h-0.277v0.277h0.277v-0.277z"></path>
<path fill="#2196f3" d="M13.373 13.439h-0.277v0.277h0.277v-0.277z"></path>
<path fill="#2196f3" d="M13.373 13.992h-0.277v0.277h0.277v-0.277z"></path>
<path fill="#2196f3" d="M13.649 13.716h-0.277v0.277h0.277v-0.277z"></path>
<path fill="#2196f3" d="M13.096 13.716h-0.277v0.277h0.277v-0.277z"></path>
<path fill="#212121" d="M18.259 15.523c-0.075-0.101-0.184-0.165-0.308-0.183s-0.248 0.015-0.347 0.091l-0.325 0.249-0.492 0.367-0.352-0.14c0.628-0.282 1.067-0.91 1.067-1.639 0-0.991-0.81-1.798-1.805-1.798s-1.805 0.806-1.805 1.798c0 0.359 0.107 0.693 0.29 0.974l-0.717-0.006c-0 0-0.001 0-0.001 0-0.002 0-0.004 0.001-0.006 0.001-0.014 0.001-0.027 0.003-0.040 0.008-0.003 0.001-0.007 0.002-0.010 0.003-0.002 0.001-0.003 0.001-0.005 0.002l-0.838 0.414c-0 0-0 0-0 0l-0.491 0.236c-0.005 0.002-0.011 0.006-0.016 0.009-0.196 0.13-0.262 0.386-0.155 0.595 0.057 0.111 0.154 0.193 0.274 0.23 0.046 0.014 0.093 0.021 0.14 0.021 0.075 0 0.149-0.018 0.218-0.055l0.36-0.191 0.587-0.303 0.352-0.002-1.411 1.404c-0 0-0 0-0 0l-0.347 0.346c-0.082 0.082-0.127 0.19-0.127 0.305s0.045 0.224 0.127 0.306c0.084 0.084 0.195 0.126 0.306 0.126s0.222-0.042 0.306-0.126l0.341-0.339 0.451-0.337 0.233 0.233-0.457 0.455c-0 0-0 0-0 0l-0.347 0.346c-0.082 0.082-0.127 0.19-0.127 0.305s0.045 0.224 0.127 0.306c0.084 0.084 0.195 0.126 0.306 0.126s0.222-0.042 0.306-0.126l0.903-0.899c0-0 0-0 0-0l0.262-0.259-0.001-0.001c0.002-0.002 0.004-0.002 0.006-0.004l1.339-1.467 0.9 0.128c0.007 0.001 0.013 0.001 0.020 0.001 0.017 0 0.033-0.004 0.048-0.010 0.005-0.002 0.009-0.004 0.013-0.006s0.010-0.004 0.015-0.007l0.833-0.553c0.003-0.002 0.005-0.005 0.008-0.008s0.007-0.004 0.011-0.007l0.33-0.309c0.172-0.161 0.195-0.424 0.055-0.612zM12.404 16.459c-0.045 0.024-0.096 0.029-0.145 0.013s-0.088-0.048-0.111-0.093c-0.042-0.081-0.018-0.18 0.056-0.234l0.341-0.164 0.082 0.24 0.034 0.101-0.257 0.137zM13.311 15.985l-0.401 0.207-0.066-0.194-0.048-0.139 0.525-0.259-0.010 0.385zM17.225 14.269c0 0.238-0.057 0.463-0.155 0.664l-1.084-0.492c-0.011-0.149-0.088-0.279-0.204-0.36l0.38-1.26c0.617 0.196 1.064 0.771 1.064 1.449zM14.169 14.269c0-0.839 0.685-1.521 1.528-1.521 0.066 0 0.13 0.006 0.193 0.014l-0.371 1.232c-0.005-0-0.010-0.002-0.015-0.002-0.268 0-0.486 0.217-0.486 0.484s0.218 0.484 0.486 0.484c0.18 0 0.336-0.099 0.419-0.245l1.001 0.455c-0.279 0.375-0.724 0.62-1.228 0.62-0.843 0-1.528-0.682-1.528-1.521zM15.713 14.476c0 0.114-0.094 0.207-0.209 0.207s-0.209-0.093-0.209-0.207 0.094-0.207 0.209-0.207c0.115 0 0.209 0.093 0.209 0.207zM12.491 18.371c-0.061 0.061-0.16 0.061-0.222 0-0.030-0.029-0.046-0.068-0.046-0.11s0.016-0.080 0.046-0.109l0.249-0.248 0.221 0.22-0.249 0.247zM13.324 19.339c-0.061 0.061-0.16 0.061-0.222 0-0.030-0.029-0.046-0.068-0.046-0.11s0.016-0.080 0.046-0.109l0.25-0.249 0.221 0.22-0.249 0.248zM14.227 18.44c-0 0-0 0-0 0l-0.458 0.456-0.221-0.22 0.457-0.455c0 0 0 0 0-0s0-0 0-0c0.010-0.010 0.017-0.023 0.023-0.035 0.002-0.004 0.005-0.007 0.007-0.010 0.004-0.011 0.005-0.022 0.007-0.033 0.001-0.006 0.004-0.012 0.004-0.019 0-0.009-0.003-0.018-0.005-0.027s-0.002-0.017-0.005-0.025c-0.005-0.013-0.014-0.024-0.024-0.036-0.003-0.003-0.004-0.007-0.007-0.010 0 0 0 0-0 0s-0-0-0-0.001l-0.417-0.415c-0.004-0.004-0.010-0.006-0.015-0.010-0.007-0.006-0.014-0.011-0.023-0.015s-0.016-0.006-0.024-0.008c-0.009-0.003-0.017-0.004-0.027-0.005s-0.016 0-0.025 0.001c-0.009 0.001-0.018 0.002-0.027 0.005s-0.016 0.007-0.024 0.012c-0.005 0.003-0.011 0.004-0.016 0.007l-0.46 0.343-0.233-0.233 0.622-0.619 1.13 1.112-0.24 0.238zM15.995 16.621c-0.004-0.001-0.008 0.001-0.012 0.001-0.010-0.001-0.020 0-0.030 0.002-0.008 0.001-0.015 0.003-0.023 0.006-0.009 0.003-0.017 0.007-0.025 0.012s-0.015 0.010-0.022 0.016c-0.003 0.003-0.007 0.004-0.010 0.008l-1.218 1.334-1.122-1.104 0.734-0.731c0.054-0.054 0.054-0.141 0-0.196-0.027-0.027-0.063-0.041-0.099-0.040v-0l-0.575 0.003 0.007-0.417 0.805 0.007c0.328 0.335 0.785 0.545 1.291 0.545 0.113 0 0.224-0.012 0.332-0.032 0.010 0.008 0.021 0.017 0.034 0.022l0.625 0.249 0.039 0.197 0.046 0.23-0.779-0.111zM17.042 16.667l-0.081-0.404 0.375-0.28 0.245 0.326-0.539 0.358zM18.015 15.933l-0.217 0.204-0.241-0.32 0.215-0.165c0.040-0.031 0.091-0.044 0.141-0.037s0.094 0.033 0.124 0.074c0.056 0.076 0.047 0.181-0.022 0.246z"></path>
<path fill="#212121" d="M15.378 16.66l-0.556-0.553c-0.054-0.054-0.141-0.054-0.195 0l-0.556 0.553c-0.026 0.026-0.041 0.061-0.041 0.098s0.014 0.072 0.041 0.098l0.556 0.553c0.027 0.027 0.062 0.040 0.098 0.040s0.071-0.013 0.098-0.040l0.556-0.553c0.026-0.026 0.041-0.061 0.041-0.098s-0.015-0.072-0.041-0.098zM14.725 17.116l-0.359-0.358 0.359-0.358 0.36 0.358-0.36 0.358z"></path>
<path fill="#212121" d="M16.302 13.166l-0.067 0.269c0.018 0.005 0.451 0.117 0.451 0.557h0.277c0-0.523-0.432-0.769-0.66-0.826z"></path>
<path fill="#212121" d="M16.962 14.269h-0.277v0.277h0.277v-0.277z"></path>
</svg>
