<!-- Generated by IcoMoon.io -->
<svg version="1.1" xmlns="http://www.w3.org/2000/svg" width="32" height="32" viewBox="0 0 32 32">
<title>Clock</title>
<path fill="#f5f4fa" d="M0.474 8.889h31.052c0.262 0 0.474 0.212 0.474 0.474v13.274c0 0.262-0.212 0.474-0.474 0.474h-31.052c-0.262 0-0.474-0.212-0.474-0.474v-13.274c0-0.262 0.212-0.474 0.474-0.474z"></path>
<path fill="#212121" d="M19.966 15.819c-0-2.191-1.777-3.967-3.969-3.967s-3.967 1.777-3.967 3.969c0 1.726 1.117 3.254 2.761 3.779 0.016 0.005 0.032 0.007 0.048 0.007 0.031-0 0.062-0.008 0.089-0.024 0.035-0.021 0.061-0.054 0.073-0.092l1.002-3.176c0.274-0.001 0.495-0.225 0.493-0.498s-0.224-0.495-0.498-0.493c-0.074 0-0.146 0.017-0.213 0.050l-1.324-1.324c-0.066-0.063-0.17-0.062-0.234 0.004-0.062 0.064-0.062 0.166 0 0.23l1.323 1.325c-0.101 0.207-0.043 0.457 0.139 0.599l-0.955 3.026c-1.887-0.695-2.853-2.788-2.158-4.675s2.788-2.853 4.675-2.158c1.887 0.695 2.853 2.788 2.158 4.675-0.34 0.922-1.037 1.667-1.935 2.067l-0.103-0.486c-0.019-0.089-0.107-0.146-0.196-0.127-0.028 0.006-0.054 0.019-0.076 0.038l-0.995 0.888c-0.068 0.061-0.074 0.165-0.014 0.233 0.020 0.022 0.045 0.039 0.073 0.048l1.27 0.405c0.087 0.028 0.18-0.020 0.208-0.107 0.009-0.027 0.010-0.057 0.004-0.085l-0.101-0.477c1.468-0.619 2.422-2.059 2.419-3.653v0zM15.998 15.654c0.091 0 0.165 0.074 0.165 0.165s-0.074 0.165-0.165 0.165c-0.091 0-0.165-0.074-0.165-0.165s0.074-0.165 0.165-0.165zM16.542 19.507l0.566-0.505 0.156 0.736-0.723-0.231z"></path>
<path fill="#2196f3" d="M15.833 12.678v0.331c0 0.091 0.074 0.165 0.165 0.165s0.165-0.074 0.165-0.165v-0.331c0-0.091-0.074-0.165-0.165-0.165s-0.165 0.074-0.165 0.165z"></path>
<path fill="#2196f3" d="M12.857 15.653c-0.091 0-0.165 0.074-0.165 0.165s0.074 0.165 0.165 0.165h0.331c0.091 0 0.165-0.074 0.165-0.165s-0.074-0.165-0.165-0.165h-0.331z"></path>
<path fill="#2196f3" d="M19.139 15.984c0.091 0 0.165-0.074 0.165-0.165s-0.074-0.165-0.165-0.165h-0.331c-0.091 0-0.165 0.074-0.165 0.165s0.074 0.165 0.165 0.165h0.331z"></path>
</svg>
