<!-- Generated by IcoMoon.io -->
<svg version="1.1" xmlns="http://www.w3.org/2000/svg" width="32" height="32" viewBox="0 0 32 32">
<title>Diagram</title>
<path fill="#f5f4fa" d="M0.474 8.889h31.052c0.262 0 0.474 0.212 0.474 0.474v13.274c0 0.262-0.212 0.474-0.474 0.474h-31.052c-0.262 0-0.474-0.212-0.474-0.474v-13.274c0-0.262 0.212-0.474 0.474-0.474z"></path>
<path fill="#2196f3" d="M15.721 15.732h0.276v1.244h-0.276v-1.244z"></path>
<path fill="#2196f3" d="M16.827 16.284h0.276v0.691h-0.276v-0.691z"></path>
<path fill="#2196f3" d="M14.616 16.699h0.276v0.276h-0.276v-0.276z"></path>
<path fill="#2196f3" d="M13.787 16.561h0.276v0.415h-0.276v-0.415z"></path>
<path fill="#212121" d="M12.266 19.187h6.634c0.229 0 0.415-0.186 0.415-0.415v-0.553c0-0.229-0.186-0.415-0.415-0.415h-0.138v-3.446l0.785-0.744c0.182 0.090 0.403 0.035 0.522-0.129s0.103-0.391-0.039-0.536-0.368-0.167-0.535-0.051c-0.167 0.116-0.227 0.335-0.141 0.519l-0.591 0.561v-0.319c0-0.229-0.186-0.415-0.415-0.415h-5.528c-0.229 0-0.415 0.186-0.415 0.415v4.146h-0.138c-0.229 0-0.415 0.186-0.415 0.415v0.553c0 0.229 0.186 0.415 0.415 0.415zM19.729 13.106c0.076 0 0.138 0.062 0.138 0.138s-0.062 0.138-0.138 0.138c-0.076 0-0.138-0.062-0.138-0.138s0.062-0.138 0.138-0.138zM12.681 13.659c0-0.076 0.062-0.138 0.138-0.138h5.528c0.076 0 0.138 0.062 0.138 0.138v0.58l-0.276 0.263v-0.567c0-0.076-0.062-0.138-0.138-0.138h-4.975c-0.076 0-0.138 0.062-0.138 0.138v3.455c0 0.076 0.062 0.138 0.138 0.138h4.975c0.076 0 0.138-0.062 0.138-0.138v-2.508l0.276-0.262v3.185h-5.804v-4.146zM13.925 15.455c-0.187-0.001-0.351 0.124-0.401 0.304s0.027 0.371 0.188 0.467c0.161 0.095 0.366 0.071 0.5-0.059l0.48 0.241c0.056 0.028 0.123 0.015 0.165-0.032l1.021-1.149 1.004 0.752c0.054 0.040 0.129 0.036 0.178-0.010l0.872-0.826v2.108h-4.699v-3.179h4.699v0.69l-0.978 0.926-1.012-0.759c-0.057-0.043-0.138-0.035-0.186 0.019l-1.035 1.165-0.387-0.194c0.003-0.017 0.005-0.033 0.005-0.050 0-0.229-0.186-0.415-0.415-0.415zM14.063 15.87c0 0.076-0.062 0.138-0.138 0.138s-0.138-0.062-0.138-0.138c0-0.076 0.062-0.138 0.138-0.138s0.138 0.062 0.138 0.138zM14.892 18.081h1.382v0.138c0 0.076-0.062 0.138-0.138 0.138h-1.106c-0.076 0-0.138-0.062-0.138-0.138v-0.138zM12.128 18.219c0-0.076 0.062-0.138 0.138-0.138h2.349v0.138c0 0.229 0.186 0.415 0.415 0.415h1.106c0.229 0 0.415-0.186 0.415-0.415v-0.138h2.349c0.076 0 0.138 0.062 0.138 0.138v0.553c0 0.076-0.062 0.138-0.138 0.138h-6.634c-0.076 0-0.138-0.062-0.138-0.138v-0.553z"></path>
</svg>
